<?xml version="1.0" encoding="utf-8"?>
<!-- Generator: Adobe Illustrator 17.1.0, SVG Export Plug-In . SVG Version: 6.00 Build 0)  -->
<!DOCTYPE svg PUBLIC "-//W3C//DTD SVG 1.1//EN" "http://www.w3.org/Graphics/SVG/1.1/DTD/svg11.dtd">
<svg version="1.1" id="Layer_1" xmlns="http://www.w3.org/2000/svg" xmlns:xlink="http://www.w3.org/1999/xlink" x="0px" y="0px"
	 viewBox="0 0 34 28" width="34" height="28" enable-background="new 0 0 34 28" xml:space="preserve">
<g>
	<g>
		<path fill="#019CDC" d="M30.2,20c-1.7-1-3.5-2-3.8-3.4c2.5-2.4,2.4-4.5,2.4-8.3c0-0.4,0-0.9,0-1.4c0-1.8-0.7-3.6-2-4.9
			c-1.3-1.3-3-2.1-4.6-2.1c-1.7,0-3.3,0.8-4.6,2.1c-1.3,1.3-2,3.1-2,4.9c0,0.5,0,0.9,0,1.4c0,3.8,0,5.8,2.4,8.3
			c-0.3,1.4-2.1,2.4-3.8,3.4c-2,1.1-3.8,2.1-3.8,4V28H34v-3.9C34,22.2,32.1,21.1,30.2,20z M31.9,25.8H12.3v-1.7
			c0-0.6,1.6-1.4,2.7-2.1c2.2-1.2,5-2.8,5-5.8v-0.5l-0.4-0.3c-2.1-2-2.1-3.1-2.1-7c0-0.4,0-0.9,0-1.4c0-2.5,2.2-4.8,4.5-4.8
			c2.3,0,4.5,2.3,4.5,4.8c0,0.5,0,0.9,0,1.4c0,3.9,0,5-2.1,7l-0.4,0.3v0.5c0,3,2.8,4.5,5,5.8c1.1,0.6,2.7,1.5,2.7,2.1V25.8z M13.5,7
			c0-3.8-3-7-6.7-7C3,0,0,3.1,0,7c0,3.8,3,7,6.7,7C10.4,13.9,13.5,10.8,13.5,7z"/>
	</g>
</g>
</svg>
