<svg xmlns="http://www.w3.org/2000/svg" xmlns:xlink="http://www.w3.org/1999/xlink" preserveAspectRatio="xMidYMid" width="18" height="18" viewBox="0 0 18 18">
  <defs>
    <style>

      .cls-2 {
        fill: #d2d2d2;
      }
    </style>
  </defs>
  <path d="M17.998,15.157 C17.998,15.157 15.157,17.998 15.157,17.998 C15.157,17.998 9.000,11.842 9.000,11.842 C9.000,11.842 2.843,17.998 2.843,17.998 C2.843,17.998 0.002,15.157 0.002,15.157 C0.002,15.157 6.158,9.000 6.158,9.000 C6.158,9.000 0.002,2.843 0.002,2.843 C0.002,2.843 2.843,0.002 2.843,0.002 C2.843,0.002 9.000,6.158 9.000,6.158 C9.000,6.158 15.157,0.002 15.157,0.002 C15.157,0.002 17.998,2.843 17.998,2.843 C17.998,2.843 11.842,9.000 11.842,9.000 C11.842,9.000 17.998,15.157 17.998,15.157 Z" id="path-1" class="cls-2" fill-rule="evenodd"/>
</svg>
