<?xml version="1.0" encoding="utf-8"?>
<!-- Generator: Adobe Illustrator 17.1.0, SVG Export Plug-In . SVG Version: 6.00 Build 0)  -->
<!DOCTYPE svg PUBLIC "-//W3C//DTD SVG 1.1//EN" "http://www.w3.org/Graphics/SVG/1.1/DTD/svg11.dtd">
<svg version="1.1" id="Layer_1" xmlns="http://www.w3.org/2000/svg" xmlns:xlink="http://www.w3.org/1999/xlink" x="0px" y="0px"
	 viewBox="0 0 80 80" width="80" height="80" enable-background="new 0 0 80 80" xml:space="preserve">
<path fill-rule="evenodd" clip-rule="evenodd" fill="#019CDC" d="M40,0H0v80h40c22.1,0,40-17.9,40-40C80,17.9,62.1,0,40,0z"/>
<path fill="#FFFFFF" d="M40,18c-12.2,0-22,9.8-22,22c0,12.2,9.8,22,22,22c12.2,0,22-9.8,22-22C62,27.9,52.2,18,40,18z M40,57.9
	c-9.9,0-17.9-8-17.9-17.9c0-9.9,8-17.9,17.9-17.9s17.9,8,17.9,17.9C57.9,49.9,49.9,57.9,40,57.9z"/>
<g>
	<g>
		<path fill-rule="evenodd" clip-rule="evenodd" fill="#FFFFFF" d="M51.6,39h-2.5l-3-8.4c-0.2-0.6-0.7-0.9-1.3-0.9
			c-0.6,0-1.1,0.4-1.3,0.9l-5.1,14.3l-3.5-9.7c-0.2-0.6-0.7-0.9-1.3-0.9c-0.6,0-1.1,0.4-1.3,0.9L30.8,39h-2.5c0,0.3,0,0.7,0,1
			c0,0.6,0,1.2,0.1,1.8h3.3c0.6,0,1.1-0.4,1.3-0.9l0.4-1.2l3.5,9.7c0.2,0.6,0.7,0.9,1.3,0.9c0.6,0,1.1-0.4,1.3-0.9l5.1-14.3l2.1,5.8
			c0.2,0.6,0.7,0.9,1.3,0.9h3.3c0.1-0.6,0.1-1.2,0.1-1.8C51.7,39.7,51.7,39.3,51.6,39z"/>
	</g>
</g>
</svg>
