<?xml version="1.0" encoding="utf-8"?>
<!-- Generator: Adobe Illustrator 17.1.0, SVG Export Plug-In . SVG Version: 6.00 Build 0)  -->
<!DOCTYPE svg PUBLIC "-//W3C//DTD SVG 1.1//EN" "http://www.w3.org/Graphics/SVG/1.1/DTD/svg11.dtd">
<svg version="1.1" id="Layer_1" xmlns="http://www.w3.org/2000/svg" xmlns:xlink="http://www.w3.org/1999/xlink" x="0px" y="0px"
	 viewBox="0 0 27 27" width="27" height="27" enable-background="new 0 0 27 27" xml:space="preserve">
<path fill="#019CDC" d="M17.5,0C12.2,0,8,4.3,8,9.5c0,2.2,0.8,4.3,2.1,5.9l-9.7,9.7c-0.4,0.4-0.4,1.1,0,1.6C0.5,26.9,0.8,27,1.1,27
	c0.3,0,0.6-0.1,0.8-0.3l9.7-9.7c1.6,1.3,3.7,2,5.9,2c5.3,0,9.5-4.3,9.5-9.5C27,4.3,22.8,0,17.5,0z M17.5,16.8
	c-1.6,0-3.1-0.5-4.3-1.4c-0.6-0.4-1.1-1-1.6-1.6c-0.9-1.2-1.4-2.7-1.4-4.3c0-4,3.3-7.3,7.3-7.3c4,0,7.3,3.3,7.3,7.3
	C24.8,13.5,21.5,16.8,17.5,16.8z"/>
</svg>
