<?xml version="1.0" encoding="utf-8"?>
<!DOCTYPE svg PUBLIC "-//W3C//DTD SVG 1.1//EN" "http://www.w3.org/Graphics/SVG/1.1/DTD/svg11.dtd">
<svg version="1.1" id="图形" xmlns="http://www.w3.org/2000/svg" xmlns:xlink="http://www.w3.org/1999/xlink" x="0px" y="0px" width="1024px" height="1024px" viewBox="0 0 1024 1024" enable-background="new 0 0 1024 1024" xml:space="preserve">
  <path fill="#272636" d="M812.169477 288.521574c0-7.281847-13.517875-21.836331-13.517875-21.836331l-5.198395-72.79084-23.916712-11.440563c0 0-4.158716 152.86148-19.256576 172.615383-15.095813 19.760043-6.740518 56.153928-0.502443 87.346347 6.240121 31.196513-47.832402 94.628194-47.832402 94.628194-31.196513-20.797675-146.617265-38.476313-206.927863-38.476313s-175.730327 17.678638-206.927863 38.476313c0 0-54.072523-63.431681-47.832402-94.628194 6.238075-31.193443 14.59337-67.586304-0.502443-87.346347-15.09786-19.753903-19.256576-172.615383-19.256576-172.615383l-23.914666 11.440563-5.198395 72.79084c0 0-13.519921 14.553461-13.519921 21.836331 0 7.281847-99.822496 411.777391 317.151243 411.777391S812.169477 295.803421 812.169477 288.521574zM710.010773 46.96196c0.596588 3.396353 0.484024 6.993275-0.561795 10.704806-0.298805 1.060145-1.835811 1.060145-2.134617 0-5.995551-21.327748-25.25929-25.592888-43.829228-22.477944 3.846608 0.201591 7.655354 0.976234 10.18906 3.664459 1.14815 1.217734-0.403183 3.471055-1.856277 2.407839-3.950985-2.898003-17.35425 0.086981-21.983687 0.5137-2.958378 0.272199-5.886057 0.533143-8.813736 0.77055-19.097964 9.53926-33.841759 25.703405-54.219879 33.455973-17.831111 6.783497-44.861744 11.590989-62.457494 1.550309-11.502985-6.562463-21.60404-19.632129-25.357528-32.42448-0.38988-0.447185-0.753153-0.916882-1.000793-1.482771-1.362021-3.119037-2.302439-6.084579-2.966565-8.950859-0.664126 2.866281-1.605567 5.830799-2.966565 8.950859-0.246617 0.564865-0.610914 1.035586-1.000793 1.482771-3.753487 12.792351-13.853519 25.862018-25.357528 32.42448-17.593703 10.04068-44.626383 5.234211-62.456471-1.550309-20.379143-7.752568-35.122939-23.916712-54.220902-33.455973-2.925632-0.237407-5.854335-0.49835-8.813736-0.77055-4.629437-0.426719-18.030655-3.411703-21.983687-0.5137-1.453095 1.063215-3.004427-1.190105-1.856277-2.407839 2.535753-2.688225 6.342452-3.462868 10.18906-3.664459-18.569938-3.114944-37.8347 1.150196-43.829228 22.477944-0.298805 1.060145-1.835811 1.060145-2.134617 0-1.043772-3.712555-1.158383-7.309476-0.559748-10.704806-4.077875-17.797341 15.015995-39.464827 27.342742-48.363498 23.078625-16.650215 50.91767-20.801768 78.441537-22.995737 29.696346-2.372024 99.924827 7.084349 109.205191 42.496883 9.280364-35.412534 79.508845-44.868907 109.206214-42.496883 27.523867 2.193968 55.362912 6.344498 78.441537 22.995737C694.994778 7.497133 714.086601 29.164618 710.010773 46.96196z" transform="translate(0, 812) scale(1, -1)"/>
</svg>
