<?xml version="1.0" encoding="UTF-8" standalone="no"?>
<svg width="46px" height="45px" viewBox="0 0 46 45" version="1.1" xmlns="http://www.w3.org/2000/svg" xmlns:xlink="http://www.w3.org/1999/xlink" xmlns:sketch="http://www.bohemiancoding.com/sketch/ns">
    <!-- Generator: Sketch 3.3.3 (12072) - http://www.bohemiancoding.com/sketch -->
    <title>Oval 2 + Shape Copy 4 + noun_25466_cc</title>
    <desc>Created with Sketch.</desc>
    <defs></defs>
    <g id="Page-1" stroke="none" stroke-width="1" fill="none" fill-rule="evenodd" sketch:type="MSPage">
        <g id="Desktop-Copy" sketch:type="MSArtboardGroup" transform="translate(-502.000000, -547.000000)">
            <g id="Oval-2-+-Shape-Copy-4-+-noun_25466_cc" sketch:type="MSLayerGroup" transform="translate(502.000000, 547.000000)">
                <g id="Oval-2-+-Shape-Copy-4" transform="translate(0.632243, 0.000000)" fill="#F8F8F8" sketch:type="MSShapeGroup">
                    <circle id="Oval-2" cx="22.5" cy="22.5" r="22.5"></circle>
                </g>
                <g id="noun_25466_cc" transform="translate(13.632243, 13.500000)" fill="#242427" sketch:type="MSShapeGroup">
                    <path d="M17.1350886,12.3698734 L14.170557,11.6507848 C13.8982785,12.1921519 13.5396456,12.7009367 13.0873671,13.1532152 C10.8136709,15.4271392 7.12549367,15.4271392 4.85088608,13.1532152 C2.57627848,10.8783797 2.57627848,7.19043038 4.85088608,4.91605063 C6.81060759,2.95564557 9.81911392,2.68974684 12.0693418,4.10832911 L10.1533671,6.02453165 L17.5641266,7.61559494 L15.9723797,0.205291139 L14.2186329,1.95949367 C10.7660506,-0.607898734 5.86686076,-0.334936709 2.73281013,2.79797468 C-0.711113924,6.24212658 -0.711113924,11.8264557 2.73281013,15.2706076 C6.17696203,18.7147595 11.7619747,18.7147595 15.2061266,15.2710633 C16.0621519,14.4141266 16.7049114,13.4248101 17.1350886,12.3698734 L17.1350886,12.3698734 Z" id="Shape"></path>
                </g>
            </g>
        </g>
    </g>
</svg>