<?xml version="1.0" encoding="UTF-8" standalone="no"?>
<svg width="24px" height="62px" viewBox="0 0 24 62" version="1.1" xmlns="http://www.w3.org/2000/svg" xmlns:xlink="http://www.w3.org/1999/xlink" xmlns:sketch="http://www.bohemiancoding.com/sketch/ns">
    <!-- Generator: Sketch 3.3.3 (12072) - http://www.bohemiancoding.com/sketch -->
    <title>logo</title>
    <desc>Created with Sketch.</desc>
    <defs></defs>
    <g id="Page-1" stroke="none" stroke-width="1" fill="none" fill-rule="evenodd" sketch:type="MSPage">
        <g id="logo" sketch:type="MSLayerGroup">
            <rect id="Rectangle-6-Copy-2" fill="#3B3C3F" sketch:type="MSShapeGroup" x="0.932242883" y="0" width="23" height="62" rx="3"></rect>
            <path d="M9.72372845,29.014169 C9.72372845,30.4177054 10.3656006,31.4656297 11.0621934,31.8773371 L8.35696405,31.8773371 C8.16838437,31.8773371 7.98756827,31.9540052 7.85458578,32.0903465 L6.17590108,33.8114163 C6.10402542,33.8851454 6.15511474,34.0107532 6.25704293,34.0107532 L18.8649593,34.0107532 C18.9255653,34.0107532 18.9747763,33.9605357 18.9747763,33.8986901 L18.9747763,32.0081839 C18.9747763,31.9463384 18.9255653,31.8961208 18.8649593,31.8961208 L17.7009243,31.8961208 C18.5629313,31.3719669 19.1131432,30.380138 19.1131432,29.0890482 C19.1131432,26.4318615 17.0772089,24.8036878 14.3814962,24.8036878 C11.7591618,24.8036878 9.72372845,26.2821033 9.72372845,29.014169 M17.2450932,29.444226 C17.2450932,30.8289787 16.181609,31.8956867 14.4209059,31.8956867 C12.642046,31.8956867 11.6332825,30.8289787 11.6332825,29.444226 C11.6332825,28.0031224 12.642046,26.9927653 14.4209059,26.9927653 C16.181609,26.9927653 17.2450932,28.021906 17.2450932,29.444226 Z M9.80286992,8.65649631 C9.80286992,9.84408431 10.3667307,10.8463912 11.3304154,11.2733044 L9.44937694,13.1718608 C9.37725085,13.2445676 9.42771407,13.3701754 9.52914138,13.3701754 L18.8852479,13.3701754 C18.9454782,13.3701754 18.9941883,13.3202134 18.9941883,13.2590068 L18.9941883,11.328761 C18.9941883,11.2675543 18.9454782,11.2175923 18.8852479,11.2175923 L14.5491675,11.2175923 C12.8942744,11.2175923 11.9487464,10.4570453 11.9487464,8.78695976 C11.9487464,8.60231756 11.9611431,8.40502513 11.9860616,8.20568821 C11.9943261,8.13962591 11.9431115,8.08161376 11.8779977,8.08161376 L9.94862473,8.08161376 C9.8947806,8.08161376 9.84945136,8.12160892 9.84093647,8.17578767 C9.82290495,8.28963972 9.80286992,8.46278172 9.80286992,8.65649631 Z M18.9791401,44.4734353 C18.9725034,44.4707519 18.9596059,44.4678129 18.9480858,44.4798243 L17.2452338,46.1769992 C17.2250736,46.1978273 17.2136786,46.225939 17.2136786,46.2552006 L17.2136786,50.3529798 L11.6312944,45.3907684 C11.6115098,45.3731348 11.5860904,45.3634235 11.5597944,45.3634235 L9.94998012,45.3634235 C9.88974982,45.3634235 9.84103967,45.4132577 9.84103967,45.4745921 L9.84103967,53.4996918 C9.84103967,53.516431 9.85193371,53.5237145 9.85857031,53.5263979 C9.86495648,53.5290813 9.87785403,53.532148 9.88937417,53.5202644 L11.5918505,51.8142727 C11.6123864,51.7933167 11.6240317,51.7649496 11.6240317,51.7354324 L11.6240317,47.9390864 L17.1491909,52.8423911 C17.1689755,52.859897 17.1943949,52.8696083 17.2205657,52.8696083 L18.8878555,52.8696083 C18.9479605,52.8696083 18.9967959,52.8199019 18.9967959,52.7584396 L18.9967959,44.5002691 C18.9967959,44.4834021 18.9855262,44.4761186 18.9791401,44.4734353 Z M14.3628289,35.6052493 C11.562308,35.6052493 9.7619105,37.2382786 9.7619105,40.021712 C9.7619105,42.3041196 11.6169034,44.4196465 14.4172991,44.4196465 C14.624286,44.4196465 14.8308972,44.4069963 15.0356301,44.3841237 L15.0356301,44.3750513 C16.3122369,44.2268264 17.5154654,43.6300934 18.2884417,42.5429406 C18.8441632,41.7619488 19.1281597,40.7993815 19.1423095,39.8331086 C19.1281597,38.8667079 18.844038,37.9042684 18.2884417,37.1232766 C18.1046204,36.8645219 17.8952543,36.6352845 17.6671055,36.4317308 C17.6244058,36.3936523 17.5596677,36.3965913 17.519222,36.4374809 L16.2863166,37.68717 C16.2399856,37.7341931 16.244243,37.8120111 16.2958332,37.852773 C16.7168192,38.1855123 17.0226038,38.6962493 17.1608454,39.2124808 C17.1871414,39.3109992 17.2083034,39.4109232 17.2239558,39.5117417 C17.2406099,39.617288 17.2508778,39.7250066 17.2562623,39.8331086 C17.2508778,39.9412105 17.2406099,40.0488013 17.2239558,40.1544754 C17.2083034,40.2552939 17.1871414,40.3552179 17.1608454,40.4537364 C17.0202246,40.9763569 16.7250836,41.4577044 16.3023446,41.7899326 C16.0422649,41.9945085 15.7387343,42.1371111 15.4179234,42.2086679 C15.4100346,42.210329 15.4017702,42.212118 15.3937562,42.2139069 C15.2759252,42.2389518 15.1560907,42.2536465 15.0357553,42.2596522 L15.0357553,35.7510463 C15.0357553,35.6955898 14.9960609,35.6488223 14.9422168,35.6408999 C14.8228832,35.6235218 14.6063797,35.6052493 14.3628289,35.6052493 Z M13.4672493,42.2114398 C12.5215961,42.1371996 11.5033159,41.3581245 11.5033159,40.0032724 C11.5033159,38.5187235 12.4304367,37.8135053 13.4672493,37.7765768 L13.4672493,42.2114398 Z M14.3628289,14.8166325 C11.562308,14.8166325 9.7619105,16.4495341 9.7619105,19.2329674 C9.7619105,21.5153751 11.6169034,23.630902 14.4172991,23.630902 C14.624286,23.630902 14.8308972,23.6182517 15.0356301,23.5953791 L15.0356301,23.5864345 C16.3122369,23.4382096 17.5154654,22.8414767 18.2884417,21.7543238 C18.8441632,20.973332 19.1281597,20.0107647 19.1423095,19.0444918 C19.1281597,18.0780911 18.844038,17.1155238 18.2884417,16.3346598 C18.0972325,16.0654272 17.8783498,15.8281396 17.6393069,15.6185803 C17.6120092,15.5945576 17.5709374,15.5964743 17.5452675,15.6224137 L16.2520066,16.9333094 C16.2228306,16.9630822 16.2272133,17.0117664 16.2603963,17.0369391 C16.6999146,17.3686561 17.018722,17.8931933 17.1608454,18.423864 C17.1871414,18.5223824 17.2083034,18.6223064 17.2239558,18.7231249 C17.2406099,18.8286713 17.2508778,18.9363899 17.2562623,19.0446196 C17.2508778,19.1527215 17.2406099,19.2603123 17.2239558,19.3659865 C17.2083034,19.4668049 17.1871414,19.566729 17.1608454,19.6652474 C17.0202246,20.1878679 16.7250836,20.6692154 16.3023446,21.0014436 C16.0422649,21.2060195 15.7387343,21.3486221 15.4179234,21.4201789 C15.4100346,21.4218401 15.4017702,21.423629 15.3937562,21.4254179 C15.2759252,21.450335 15.1560907,21.4651575 15.0357553,21.4710354 L15.0357553,14.9624296 C15.0357553,14.906973 14.9960609,14.8602055 14.9422168,14.8522832 C14.8228832,14.8347773 14.6063797,14.8166325 14.3628289,14.8166325 Z M13.4672493,21.422696 C12.5215961,21.3484558 11.5033159,20.5693807 11.5033159,19.2146563 C11.5033159,17.7301074 12.4304367,17.0247614 13.4672493,16.987833 L13.4672493,21.422696 L13.4672493,21.422696 Z" id="zeber-logo" fill="#BBBBBB" sketch:type="MSShapeGroup"></path>
        </g>
    </g>
</svg>