<?xml version="1.0" encoding="UTF-8" standalone="no"?>
<svg width="47px" height="14px" viewBox="0 0 47 14" version="1.1" xmlns="http://www.w3.org/2000/svg" xmlns:xlink="http://www.w3.org/1999/xlink" xmlns:sketch="http://www.bohemiancoding.com/sketch/ns">
    <!-- Generator: Sketch 3.3.3 (12072) - http://www.bohemiancoding.com/sketch -->
    <title>zeber-logo copy</title>
    <desc>Created with Sketch.</desc>
    <defs></defs>
    <g id="Page-1" stroke="none" stroke-width="1" fill="none" fill-rule="evenodd" sketch:type="MSPage">
        <path d="M20.581419,4.93255528 C20.581419,6.3360916 21.2232911,7.38401598 21.9198839,7.79572338 L19.2146546,7.79572338 C19.0260749,7.79572338 18.8452588,7.87239142 18.7122763,8.00873276 L17.0335916,9.72980256 C16.961716,9.80353166 17.0128053,9.92913948 17.1147335,9.92913948 L29.7226498,9.92913948 C29.7832558,9.92913948 29.8324668,9.87892191 29.8324668,9.81707635 L29.8324668,7.92657017 C29.8324668,7.86472461 29.7832558,7.81450705 29.7226498,7.81450705 L28.5586149,7.81450705 C29.4206218,7.29035319 29.9708337,6.29852426 29.9708337,5.0074344 C29.9708337,2.35024778 27.9348995,0.722074087 25.2391868,0.722074087 C22.6168524,0.722074087 20.581419,2.20048953 20.581419,4.93255528 M28.1027837,5.36261226 C28.1027837,6.74736491 27.0392995,7.81407296 25.2785964,7.81407296 C23.4997366,7.81407296 22.490973,6.74736491 22.490973,5.36261226 C22.490973,3.9215086 23.4997366,2.91115156 25.2785964,2.91115156 C27.0392995,2.91115156 28.1027837,3.94029227 28.1027837,5.36261226 Z M20.6605604,-15.4251175 C20.6605604,-14.2375295 21.2244212,-13.2352226 22.1881059,-12.8083093 L20.3070675,-10.909753 C20.2349414,-10.8370461 20.2854046,-10.7114383 20.3868319,-10.7114383 L29.7429384,-10.7114383 C29.8031687,-10.7114383 29.8518789,-10.7614003 29.8518789,-10.822607 L29.8518789,-12.7528528 C29.8518789,-12.8140594 29.8031687,-12.8640214 29.7429384,-12.8640214 L25.406858,-12.8640214 C23.7519649,-12.8640214 22.8064369,-13.6245684 22.8064369,-15.294654 C22.8064369,-15.4792962 22.8188336,-15.6765886 22.8437521,-15.8759255 C22.8520166,-15.9419878 22.8008021,-16 22.7356882,-16 L20.8063153,-16 C20.7524711,-16 20.7071419,-15.9600048 20.698627,-15.9058261 C20.6805955,-15.791974 20.6605604,-15.618832 20.6605604,-15.4251175 Z M29.8368306,20.3918215 C29.830194,20.3891381 29.8172964,20.3861992 29.8057763,20.3982105 L28.1029243,22.0953854 C28.0827641,22.1162136 28.0713692,22.1443252 28.0713692,22.1735868 L28.0713692,26.271366 L22.4889849,21.3091546 C22.4692004,21.291521 22.4437809,21.2818097 22.417485,21.2818097 L20.8076706,21.2818097 C20.7474404,21.2818097 20.6987302,21.3316439 20.6987302,21.3929784 L20.6987302,29.4180781 C20.6987302,29.4348173 20.7096242,29.4421007 20.7162608,29.4447841 C20.722647,29.4474675 20.7355446,29.4505342 20.7470647,29.4386507 L22.449541,27.7326589 C22.4700769,27.711703 22.4817223,27.6833358 22.4817223,27.6538186 L22.4817223,23.8574726 L28.0068814,28.7607774 C28.026666,28.7782833 28.0520855,28.7879945 28.0782562,28.7879945 L29.745546,28.7879945 C29.8056511,28.7879945 29.8544864,28.7382881 29.8544864,28.6768259 L29.8544864,20.4186553 C29.8544864,20.4017883 29.8432167,20.3945049 29.8368306,20.3918215 Z M25.2205194,11.5236355 C22.4199985,11.5236355 20.619601,13.1566649 20.619601,15.9400982 C20.619601,18.2225059 22.474594,20.3380328 25.2749897,20.3380328 C25.4819765,20.3380328 25.6885877,20.3253825 25.8933206,20.3025099 L25.8933206,20.2934375 C27.1699274,20.1452126 28.3731559,19.5484797 29.1461323,18.4613268 C29.7018538,17.680335 29.9858503,16.7177677 30,15.7514948 C29.9858503,14.7850941 29.7017286,13.8226546 29.1461323,13.0416628 C28.9623109,12.7829081 28.7529449,12.5536707 28.524796,12.350117 C28.4820964,12.3120386 28.4173582,12.3149775 28.3769125,12.3558671 L27.1440071,13.6055563 C27.0976761,13.6525793 27.1019336,13.7303974 27.1535237,13.7711592 C27.5745097,14.1038985 27.8802943,14.6146355 28.018536,15.130867 C28.0448319,15.2293854 28.0659939,15.3293094 28.0816463,15.4301279 C28.0983004,15.5356743 28.1085684,15.6433929 28.1139528,15.7514948 C28.1085684,15.8595967 28.0983004,15.9671876 28.0816463,16.0728617 C28.0659939,16.1736802 28.0448319,16.2736042 28.018536,16.3721226 C27.8779151,16.8947431 27.5827742,17.3760907 27.1600351,17.7083188 C26.8999554,17.9128947 26.5964248,18.0554973 26.275614,18.1270541 C26.2677252,18.1287153 26.2594607,18.1305042 26.2514467,18.1322931 C26.1336157,18.157338 26.0137812,18.1720327 25.8934459,18.1780384 L25.8934459,11.6694326 C25.8934459,11.613976 25.8537515,11.5672085 25.7999073,11.5592862 C25.6805737,11.5419081 25.4640702,11.5236355 25.2205194,11.5236355 Z M24.3249398,18.129826 C23.3792866,18.0555858 22.3610064,17.2765107 22.3610064,15.9216586 C22.3610064,14.4371097 23.2881273,13.7318915 24.3249398,13.694963 L24.3249398,18.129826 Z M25.2205194,-9.26498124 C22.4199985,-9.26498124 20.619601,-7.63207968 20.619601,-4.84864635 C20.619601,-2.56623869 22.474594,-0.450711795 25.2749897,-0.450711795 C25.4819765,-0.450711795 25.6885877,-0.463362022 25.8933206,-0.486234655 L25.8933206,-0.49517926 C27.1699274,-0.643404145 28.3731559,-1.24013709 29.1461323,-2.32728995 C29.7018538,-3.10828176 29.9858503,-4.07084905 30,-5.03712196 C29.9858503,-6.00352265 29.7017286,-6.96608994 29.1461323,-7.74695397 C28.954923,-8.01618658 28.7360403,-8.25347418 28.4969974,-8.4630335 C28.4696997,-8.48705615 28.4286279,-8.48513945 28.402958,-8.4592001 L27.1096971,-7.14830433 C27.0805211,-7.11853157 27.0849038,-7.06984736 27.1180868,-7.04467469 C27.5576052,-6.71295762 27.8764125,-6.18842042 28.018536,-5.65774977 C28.0448319,-5.55923134 28.0659939,-5.45930732 28.0816463,-5.35848884 C28.0983004,-5.2529425 28.1085684,-5.1452239 28.1139528,-5.03699418 C28.1085684,-4.92889224 28.0983004,-4.82130142 28.0816463,-4.7156273 C28.0659939,-4.61480882 28.0448319,-4.5148848 28.018536,-4.41636636 C27.8779151,-3.89374587 27.5827742,-3.41239833 27.1600351,-3.08017014 C26.8999554,-2.87559424 26.5964248,-2.73299168 26.275614,-2.66143484 C26.2677252,-2.6597737 26.2594607,-2.65798478 26.2514467,-2.65619586 C26.1336157,-2.63127874 26.0137812,-2.61645625 25.8934459,-2.61057837 L25.8934459,-9.11918418 C25.8934459,-9.17464073 25.8537515,-9.22140823 25.7999073,-9.2293306 C25.6805737,-9.24683647 25.4640702,-9.26498124 25.2205194,-9.26498124 Z M24.3249398,-2.65891776 C23.3792866,-2.73315798 22.3610064,-3.51223309 22.3610064,-4.86695742 C22.3610064,-6.35150631 23.2881273,-7.05685231 24.3249398,-7.09378076 L24.3249398,-2.65891776 L24.3249398,-2.65891776 Z" id="zeber-logo-copy" fill="#BBBBBB" sketch:type="MSShapeGroup" transform="translate(23.500000, 6.723621) rotate(90.000000) translate(-23.500000, -6.723621) "></path>
    </g>
</svg>