<svg xmlns="http://www.w3.org/2000/svg" viewBox="0 0 34 28" width="34" height="28"><path fill="#019CDC" d="M30.2 20c-1.7-1-3.5-2-3.8-3.4 2.5-2.4 2.4-4.5 2.4-8.3V6.9c0-1.8-.7-3.6-2-4.9-1.3-1.3-3-2.1-4.6-2.1-1.7 0-3.3.8-4.6 2.1-1.3 1.3-2 3.1-2 4.9v1.4c0 3.8 0 5.8 2.4 8.3-.3 1.4-2.1 2.4-3.8 3.4-2 1.1-3.8 2.1-3.8 4v4H34v-3.9c0-1.9-1.9-3-3.8-4.1zm1.7 5.8H12.3v-1.7c0-.6 1.6-1.4 2.7-2.1 2.2-1.2 5-2.8 5-5.8v-.5l-.4-.3c-2.1-2-2.1-3.1-2.1-7V7c0-2.5 2.2-4.8 4.5-4.8s4.5 2.3 4.5 4.8v1.4c0 3.9 0 5-2.1 7l-.4.3v.5c0 3 2.8 4.5 5 5.8 1.1.6 2.7 1.5 2.7 2.1v1.7zM13.5 7c0-3.8-3-7-6.7-7C3 0 0 3.1 0 7c0 3.8 3 7 6.7 7 3.7-.1 6.8-3.2 6.8-7z"/></svg>