<svg xmlns="http://www.w3.org/2000/svg" viewBox="0 0 80 80" width="80" height="80"><path fill-rule="evenodd" clip-rule="evenodd" fill="#019CDC" d="M40 0H0v80h40c22.1 0 40-17.9 40-40S62.1 0 40 0z"/><path fill="#FFF" d="M40 18c-12.2 0-22 9.8-22 22s9.8 22 22 22 22-9.8 22-22c0-12.1-9.8-22-22-22zm0 39.9c-9.9 0-17.9-8-17.9-17.9 0-9.9 8-17.9 17.9-17.9s17.9 8 17.9 17.9c0 9.9-8 17.9-17.9 17.9z"/><path fill-rule="evenodd" clip-rule="evenodd" fill="#FFF" d="M51.6 39h-2.5l-3-8.4c-.2-.6-.7-.9-1.3-.9-.6 0-1.1.4-1.3.9l-5.1 14.3-3.5-9.7c-.2-.6-.7-.9-1.3-.9-.6 0-1.1.4-1.3.9L30.8 39h-2.5v1c0 .6 0 1.2.1 1.8h3.3c.6 0 1.1-.4 1.3-.9l.4-1.2 3.5 9.7c.2.6.7.9 1.3.9.6 0 1.1-.4 1.3-.9l5.1-14.3 2.1 5.8c.2.6.7.9 1.3.9h3.3c.1-.6.1-1.2.1-1.8.3-.3.3-.7.2-1z"/></svg>